<?xml version="1.0" encoding="UTF-8" standalone="no"?>
<!DOCTYPE svg PUBLIC "-//W3C//DTD SVG 1.1//EN"
 "http://www.w3.org/Graphics/SVG/1.1/DTD/svg11.dtd">
<!-- Generated by graphviz version 2.44.0 (0)
 -->
<!-- Pages: 1 -->
<svg width="461pt" height="98pt"
 viewBox="0.00 0.00 461.17 98.00" xmlns="http://www.w3.org/2000/svg" xmlns:xlink="http://www.w3.org/1999/xlink">
<g id="graph0" class="graph" transform="scale(1 1) rotate(0) translate(4 94)">
<polygon fill="white" stroke="transparent" points="-4,4 -4,-94 457.17,-94 457.17,4 -4,4"/>
<!-- 0 -->
<g id="node1" class="node">
<title>0</title>
<ellipse fill="none" stroke="black" cx="52" cy="-45" rx="51.99" ry="18"/>
<text text-anchor="middle" x="52" y="-41.3" font-family="Times-Roman" font-size="14.00">petgraph</text>
</g>
<!-- 1 -->
<g id="node2" class="node">
<title>1</title>
<ellipse fill="none" stroke="black" cx="201.74" cy="-72" rx="58.49" ry="18"/>
<text text-anchor="middle" x="201.74" y="-68.3" font-family="Times-Roman" font-size="14.00">fixedbitset</text>
</g>
<!-- 0&#45;&gt;1 -->
<g id="edge1" class="edge">
<title>0&#45;&gt;1</title>
<path fill="none" stroke="black" d="M98.53,-53.32C111.9,-55.76 126.73,-58.48 140.86,-61.06"/>
<polygon fill="black" stroke="black" points="140.52,-64.55 150.98,-62.91 141.78,-57.67 140.52,-64.55"/>
</g>
<!-- 2 -->
<g id="node3" class="node">
<title>2</title>
<ellipse fill="none" stroke="black" cx="201.74" cy="-18" rx="61.99" ry="18"/>
<text text-anchor="middle" x="201.74" y="-14.3" font-family="Times-Roman" font-size="14.00">quickcheck</text>
</g>
<!-- 0&#45;&gt;2 -->
<g id="edge2" class="edge">
<title>0&#45;&gt;2</title>
<path fill="none" stroke="black" d="M98.53,-36.68C111.23,-34.36 125.25,-31.8 138.73,-29.33"/>
<polygon fill="black" stroke="black" points="139.69,-32.71 148.9,-27.47 138.43,-25.83 139.69,-32.71"/>
</g>
<!-- 3 -->
<g id="node4" class="node">
<title>3</title>
<ellipse fill="none" stroke="black" cx="331.33" cy="-41" rx="31.7" ry="18"/>
<text text-anchor="middle" x="331.33" y="-37.3" font-family="Times-Roman" font-size="14.00">rand</text>
</g>
<!-- 2&#45;&gt;3 -->
<g id="edge3" class="edge">
<title>2&#45;&gt;3</title>
<path fill="none" stroke="black" d="M254.63,-27.35C266.68,-29.53 279.31,-31.8 290.72,-33.86"/>
<polygon fill="black" stroke="black" points="290.35,-37.35 300.81,-35.68 291.59,-30.46 290.35,-37.35"/>
</g>
<!-- 4 -->
<g id="node5" class="node">
<title>4</title>
<ellipse fill="none" stroke="black" cx="426.17" cy="-18" rx="27" ry="18"/>
<text text-anchor="middle" x="426.17" y="-14.3" font-family="Times-Roman" font-size="14.00">libc</text>
</g>
<!-- 2&#45;&gt;4 -->
<g id="edge5" class="edge">
<title>2&#45;&gt;4</title>
<path fill="none" stroke="black" d="M262.55,-14.89C292.73,-13.73 329.9,-12.93 363.17,-14 371.6,-14.27 380.67,-14.75 389.2,-15.28"/>
<polygon fill="black" stroke="black" points="389.04,-18.78 399.25,-15.95 389.5,-11.8 389.04,-18.78"/>
</g>
<!-- 3&#45;&gt;4 -->
<g id="edge4" class="edge">
<title>3&#45;&gt;4</title>
<path fill="none" stroke="black" d="M360.69,-33.97C370.11,-31.64 380.7,-29.02 390.54,-26.58"/>
<polygon fill="black" stroke="black" points="391.58,-29.93 400.44,-24.13 389.89,-23.13 391.58,-29.93"/>
</g>
</g>
</svg>
